<svg width="135" viewBox="0 0 867 186" fill="none" xmlns="http://www.w3.org/2000/svg">
<g clip-path="url(#clip0_757697_445)">
<path d="M423.6 0.199951H402.7V112.6H482.3V94.8999H423.6V0.199951Z" fill="#080F2B"/>
<path d="M559.9 37.3C553 29.6 543.4 25.9 532.4 25.9C507.4 25.9 489.1 43.1 489.1 69.7C489.1 96.4 507.4 113.7 532.4 113.7C544.1 113.7 554.1 109.7 560.8 101.5V112.6H579.9V26.9H559.8V37.3H559.9ZM534.7 96.5C520.2 96.5 509.3 86.1 509.3 69.7C509.3 53.3 520.2 42.9 534.7 42.9C549.3 42.9 560.2 53.3 560.2 69.7C560.2 86.1 549.3 96.5 534.7 96.5Z" fill="#080F2B"/>
<path d="M714.5 25.9C700.9 25.9 689.3 31.4 682.4 40.2C676.5 30.6 666 25.9 653.5 25.9C641.8 25.9 631.8 30.1 625.4 37.8V26.9H606.3V112.6H626.4V69.1C626.4 52.1 635.4 43.4 648.7 43.4C660.9 43.4 668 50.8 668 66V112.6H688V69.1C688 52.1 697.2 43.4 710.3 43.4C722.5 43.4 729.6 50.8 729.6 66V112.6H749.7V63.5C749.6 37.6 735.2 25.9 714.5 25.9Z" fill="#080F2B"/>
<path d="M822.9 25.9C811.2 25.9 801.2 29.9 794.5 38.1V26.9H775.4V143.8H795.5V102.2C802.4 110.1 812 113.8 823 113.8C848 113.8 866.5 96.5 866.5 69.8C866.4 43.2 847.9 25.9 822.9 25.9ZM820.6 96.5C806.2 96.5 795.1 86.1 795.1 69.7C795.1 53.3 806.2 42.9 820.6 42.9C835 42.9 846 53.3 846 69.7C846 86.1 835.1 96.5 820.6 96.5Z" fill="#080F2B"/>
<path d="M105.6 0L61.8 74.5L17.2 0H0V112.4H19.9V38.9L56.8 99.5H66.1L103.1 37.9L103.2 112.4H123L122.8 0H105.6Z" fill="#080F2B"/>
<path d="M364.7 37.0999C357.8 29.3999 348.2 25.7 337.2 25.7C312.2 25.7 293.9 42.9 293.9 69.5C293.9 96.2 312.2 113.5 337.2 113.5C348.9 113.5 358.9 109.5 365.6 101.3V112.4H384.7V26.7H364.6V37.0999H364.7ZM339.5 96.3C325.1 96.3 314.1 85.9 314.1 69.5C314.1 53.1 325 42.7 339.5 42.7C354.1 42.7 365 53.1 365 69.5C365 85.9 354.1 96.3 339.5 96.3Z" fill="#080F2B"/>
<path d="M270.5 96.9999C263 96.9999 258.6 92.4999 258.6 84.1999V43.2999H281.6V27.2999H258.6V7.69995H238.5V84.5999C238.5 103.5 249.3 113.5 268 113.5C275.2 113.5 282.5 111.6 287.3 107.7L281.7 93.3999C278.7 95.7999 274.7 96.9999 270.5 96.9999Z" fill="#080F2B"/>
</g>
<g clip-path="url(#clip1_757697_445)">
<path d="M271.632 131.568C268.032 137.468 263.932 142.968 259.332 148.068C239.432 170.168 210.932 184.368 179.132 185.168L160.632 113.568L219.432 80.2679L271.632 131.568Z" fill="url(#paint0_linear_757697_445)"/>
<path d="M157.932 33.568L163.832 43.768C165.832 43.968 167.632 44.968 168.832 46.668C178.332 43.968 187.732 47.268 193.932 55.368L203.832 65.068L216.932 57.568C216.132 55.868 215.032 53.668 214.232 52.268C201.532 30.068 178.732 23.568 157.932 33.568ZM138.032 95.468C143.632 105.168 151.632 111.968 161.032 115.168L151.832 79.468C148.132 69.868 150.032 60.268 156.832 53.468C155.932 51.568 155.932 49.468 156.832 47.568L151.032 37.468C131.732 50.868 125.932 74.568 138.032 95.468Z" fill="#080F2B"/>
<path d="M223.132 83.868C220.232 94.268 212.532 103.168 201.032 109.868C187.032 117.968 173.032 119.368 161.032 115.168L151.832 79.468L193.932 55.168L203.832 64.868L158.632 90.968C167.032 100.568 180.032 102.368 192.932 94.868C201.232 90.068 206.332 83.668 208.432 75.168C208.932 73.468 209.132 71.668 209.232 70.168L223.132 83.868Z" fill="#FFA300"/>
</g>
<defs>
<linearGradient id="paint0_linear_757697_445" x1="192.701" y1="99.8091" x2="223.501" y2="155.001" gradientUnits="userSpaceOnUse">
<stop stop-color="#FFA300" stop-opacity="0.8"/>
<stop offset="1" stop-color="#FFA300" stop-opacity="0"/>
</linearGradient>
<clipPath id="clip0_757697_445">
<rect width="867" height="144" fill="white"/>
</clipPath>
<clipPath id="clip1_757697_445">
<rect width="141" height="157" fill="white" transform="translate(131 29)"/>
</clipPath>
</defs>
</svg>
