<svg width="40" height="40" viewBox="0 0 40 40" fill="none" xmlns="http://www.w3.org/2000/svg">
<rect width="40" height="40" rx="20" fill="#080F2B"/>
<path d="M15.1118 9.24947L16.7059 11.9978C17.2372 12.0528 17.7502 12.3093 18.08 12.7673C20.6451 12.0528 23.2102 12.9139 24.8776 15.1126L27.5526 17.751L31.0888 15.6989C30.8689 15.2225 30.5757 14.6362 30.3559 14.2514C26.9296 8.29672 20.7551 6.51947 15.1118 9.24947ZM9.7068 26.0326C11.2275 28.671 13.4079 30.5032 15.9547 31.3826L13.4628 21.7085C12.4551 19.1068 12.9681 16.505 14.837 14.6728C14.5988 14.1598 14.5988 13.5735 14.837 13.0788L13.243 10.3305C7.98452 13.9399 6.44546 20.371 9.7068 26.0326Z" fill="white"/>
<path d="M32.7908 22.8995C32.003 25.7211 29.9326 28.1396 26.7995 29.9352C23.0068 32.1155 19.1958 32.5186 15.9528 31.3826L13.4609 21.7085L24.894 15.1125L27.569 17.7509L15.3115 24.8233C17.5834 27.4434 21.1196 27.9014 24.6191 25.886C26.8911 24.5851 28.2469 22.8445 28.8332 20.5359C28.9615 20.0779 29.0165 19.5832 29.0348 19.1801L32.7908 22.8995Z" fill="#FFA300"/>
</svg>
